<svg xmlns="http://www.w3.org/2000/svg" width="153" height="47" viewBox="0 0 153 47" fill="none"><script xmlns="" id="argent-x-extension" data-extension-id="dlcobpjiigpikoobohmabehhmhfoodbb"/><script xmlns=""/><script xmlns=""/><script xmlns=""/>
<path fill-rule="evenodd" clip-rule="evenodd" d="M54.5861 6.07727C55.4248 6.90976 55.8442 7.32607 56.1784 7.69747C62.2189 14.4093 62.2189 24.5531 56.1784 31.2649C55.8442 31.6363 55.4248 32.0526 54.5861 32.8851C53.7473 33.7176 53.328 34.1339 52.9537 34.4657C49.4113 37.6066 40.4771 38.95 40.4649 38.9518L24.6406 40.3674C23.7467 40.4474 22.9094 40.8363 22.2747 41.4662L17.9779 45.9056C17.9916 46.8723 16.8146 47.3659 16.1259 46.6823L13.8532 44.4265C13.1645 43.743 13.6618 42.5747 14.6357 42.5883L18.9326 38.1489C19.5672 37.5189 19.959 36.6878 20.0396 35.8006L21.4658 20.0936C21.4676 20.0816 22.8211 11.2137 25.9855 7.69751C26.3197 7.32606 26.7391 6.90978 27.5779 6.07727C28.4166 5.24478 28.8359 4.82853 29.2102 4.49674C35.9721 -1.49892 46.1917 -1.4989 52.9538 4.49674C53.3279 4.82851 53.7474 5.24478 54.5861 6.07727ZM35.2097 35.5739C35.1721 35.18 34.6269 34.7793 33.5365 33.9779C31.8781 32.7589 31.0489 32.1495 30.2903 31.4618C29.845 31.0581 29.4185 30.6347 29.0118 30.1928C28.319 29.4398 27.705 28.6168 26.4769 26.9707C25.6695 25.8884 25.2658 25.3472 24.869 25.3098C24.6472 25.289 24.4255 25.351 24.2473 25.4838C23.9286 25.7215 23.8691 26.3923 23.7503 27.7338L23.0677 35.438C22.981 36.4161 22.9377 36.9052 23.2327 37.198C23.5277 37.4909 24.0204 37.4478 25.0059 37.3618L32.7676 36.6842C34.1192 36.5663 34.795 36.5073 35.0344 36.1909C35.1683 36.0141 35.2308 35.794 35.2097 35.5739ZM33.3532 15.3897C32.6847 14.7261 31.6007 14.7261 30.9321 15.3897C30.2635 16.0534 30.2635 17.1293 30.9321 17.7929C31.6007 18.4565 32.6847 18.4565 33.3532 17.7929C34.0218 17.1293 34.0218 16.0534 33.3532 15.3897ZM37.3035 19.3107C36.6349 18.6471 35.5509 18.6471 34.8823 19.3107C34.2138 19.9743 34.2138 21.0502 34.8823 21.7138C35.5509 22.3775 36.6349 22.3775 37.3035 21.7138C37.972 21.0502 37.972 19.9743 37.3035 19.3107ZM41.2538 23.2316C40.5852 22.568 39.5012 22.568 38.8326 23.2316C38.164 23.8953 38.164 24.9712 38.8326 25.6348C39.5012 26.2984 40.5851 26.2984 41.2537 25.6348C41.9223 24.9712 41.9223 23.8953 41.2538 23.2316ZM45.204 27.1526C44.5354 26.489 43.4514 26.489 42.7829 27.1526C42.1143 27.8162 42.1143 28.8921 42.7829 29.5557C43.4514 30.2194 44.5354 30.2194 45.204 29.5557C45.8726 28.8921 45.8726 27.8162 45.204 27.1526ZM37.3035 11.4688C36.6349 10.8052 35.551 10.8052 34.8824 11.4688C34.2138 12.1324 34.2138 13.2083 34.8824 13.8719C35.551 14.5355 36.6349 14.5356 37.3035 13.8719C37.9721 13.2083 37.9721 12.1324 37.3035 11.4688ZM41.2538 15.3897C40.5852 14.7261 39.5012 14.7261 38.8326 15.3897C38.164 16.0533 38.1641 17.1293 38.8326 17.7929C39.5012 18.4565 40.5852 18.4565 41.2538 17.7929C41.9223 17.1293 41.9223 16.0533 41.2538 15.3897ZM45.204 19.3107C44.5355 18.6471 43.4515 18.6471 42.7829 19.3107C42.1143 19.9743 42.1143 21.0502 42.7829 21.7138C43.4515 22.3774 44.5355 22.3775 45.204 21.7138C45.8726 21.0502 45.8726 19.9743 45.204 19.3107ZM49.1543 23.2316C48.4857 22.568 47.4017 22.568 46.7331 23.2316C46.0646 23.8952 46.0646 24.9712 46.7331 25.6348C47.4017 26.2984 48.4857 26.2984 49.1543 25.6348C49.8228 24.9712 49.8228 23.8952 49.1543 23.2316ZM41.2538 7.54783C40.5852 6.88422 39.5012 6.88422 38.8326 7.54783C38.164 8.21145 38.164 9.2874 38.8326 9.95101C39.5012 10.6146 40.5852 10.6146 41.2538 9.95101C41.9223 9.2874 41.9223 8.21145 41.2538 7.54783ZM45.204 11.4688C44.5354 10.8052 43.4514 10.8052 42.7829 11.4688C42.1143 12.1324 42.1143 13.2083 42.7829 13.8719C43.4514 14.5356 44.5354 14.5355 45.204 13.8719C45.8726 13.2083 45.8726 12.1324 45.204 11.4688ZM49.1543 15.3897C48.4857 14.7261 47.4017 14.7261 46.7331 15.3897C46.0646 16.0534 46.0646 17.1293 46.7331 17.7929C47.4017 18.4565 48.4857 18.4565 49.1543 17.7929C49.8229 17.1293 49.8228 16.0534 49.1543 15.3897ZM53.1045 19.3107C52.4359 18.6471 51.352 18.6471 50.6834 19.3107C50.0148 19.9743 50.0148 21.0502 50.6834 21.7138C51.352 22.3775 52.4359 22.3774 53.1045 21.7138C53.7731 21.0502 53.7731 19.9743 53.1045 19.3107Z" fill="#202124"/>
<path d="M66.8854 36.6885H72.0285C75.1289 36.6885 76.679 37.8725 76.679 40.2404C76.679 41.4579 76.2782 42.3591 75.4766 42.9438C74.6846 43.519 73.4773 43.8066 71.8547 43.8066H69.9133V46.9559H66.8854V36.6885ZM73.6366 40.226C73.6366 39.785 73.4918 39.4686 73.202 39.2769C72.9123 39.0852 72.4535 38.9893 71.8257 38.9893H69.9133V41.5058H71.7967C72.4245 41.5058 72.8881 41.41 73.1875 41.2182C73.4869 41.0265 73.6366 40.6958 73.6366 40.226Z" fill="#202124"/>
<path d="M85.5483 46.9559H82.3755L86.8667 36.6885H90.5175L95.0087 46.9559H91.7635L90.9956 45.0865H86.2727L85.5483 46.9559ZM88.6486 39.0324L87.1709 42.7857H90.1264L88.6486 39.0324Z" fill="#202124"/>
<path d="M102.696 36.6885H107.593C109.679 36.6885 111.253 37.1247 112.316 37.9971C113.378 38.8599 113.909 40.1349 113.909 41.8222C113.909 43.4519 113.354 44.7174 112.243 45.6185C111.132 46.5101 109.539 46.9559 107.462 46.9559H102.696V36.6885ZM110.736 41.8078C110.736 40.0343 109.708 39.1475 107.651 39.1475H105.782V44.4969H107.535C109.669 44.4969 110.736 43.6005 110.736 41.8078Z" fill="#202124"/>
<path d="M122.186 36.6885H131.24V38.9462H125.243V40.6143H130.951V42.8719H125.243V44.6982H131.588L131.298 46.9559H122.186V36.6885Z" fill="#202124"/>
<path d="M139.737 36.6885H142.866V44.4394H148.748L148.43 46.9559H139.737V36.6885Z" fill="#202124"/>
<path d="M66.8462 1.4627H75.4494V22.7717H91.6203L90.7441 29.6902H66.8462V1.4627Z" fill="#202124"/>
<path d="M93.7936 1.4627H118.687V7.66958H102.198V12.2556H117.891V18.4625H102.198V23.4833H119.643L118.847 29.6902H93.7936V1.4627Z" fill="#202124"/>
<path d="M136.431 21.9019L143.759 1.4627H153L141.489 29.6902H131.173L119.702 1.4627H129.142L136.431 21.9019Z" fill="#202124"/>
<path d="M8.17478 22.232C10.0945 22.304 11.9945 23.057 13.4572 24.5089C14.9199 25.9607 15.6785 27.8458 15.7512 29.7521C13.5623 29.3894 11.236 30.0381 9.54988 31.7109C7.86458 33.3837 7.21091 35.6936 7.57639 37.8663C5.58865 37.7985 3.70079 36.9848 2.29393 35.5894C0.887373 34.1934 0.0674431 32.3193 0 30.3461C2.18893 30.7089 4.51528 30.06 6.20137 28.3872C7.88665 26.7144 8.54026 24.4046 8.17478 22.232Z" fill="#202124"/>
<path d="M12.9647 31.4484C13.8335 31.1875 14.7538 31.1435 15.6439 31.32C15.3826 32.9345 14.6149 34.4259 13.4501 35.5822C12.2853 36.7384 10.7827 37.5005 9.15628 37.7599C8.97839 36.8763 9.0228 35.9628 9.2856 35.1004C9.5484 34.2379 10.0215 33.4532 10.6629 32.8156C11.3052 32.1789 12.0958 31.7093 12.9647 31.4484Z" fill="#202124"/>
<path d="M6.5956 22.3383C6.77348 23.2219 6.72899 24.1354 6.46619 24.9979C6.20339 25.8603 5.73038 26.6451 5.08897 27.2827C4.44658 27.9195 3.65582 28.3891 2.78684 28.65C1.91783 28.9109 0.997326 28.9549 0.107074 28.7782C0.368444 27.1636 1.13629 25.672 2.30125 24.5158C3.46622 23.3595 4.96902 22.5976 6.5956 22.3383Z" fill="#202124"/>
</svg>